# ProBuilder 4.2.3
# https://unity3d.com/unity/features/worldbuilding/probuilder
# 29/12/2020 21:33:24

mtllib ./Projectile.mtl
o Projectile

g Projectile
v 0.02500001 -0.02499962 1
v -0.02499999 -0.02499962 1
v 0.02500001 0.02500038 1
v -0.02499999 0.02500038 1
v -0.02499999 -0.02499962 -1
v -0.02499999 0.02500038 -1
v 0.02500001 -0.02499962 -1
v 0.02500001 0.02500038 -1

vt 0.02500001 -0.02499962
vt -0.02499999 -0.02499962
vt 0.02500001 0.02500038
vt -0.02499999 0.02500038
vt 1 -0.02499962
vt -1 -0.02499962
vt 1 0.02500038
vt -1 0.02500038
vt 0.02499999 -0.02499962
vt -0.02500001 -0.02499962
vt 0.02499999 0.02500038
vt -0.02500001 0.02500038
vt -0.02500001 1
vt 0.02499999 1
vt -0.02500001 -1
vt 0.02499999 -1
vt 0.02500001 -1
vt -0.02499999 -1
vt 0.02500001 1
vt -0.02499999 1

vn 0 0 1
vn -1 0 0
vn 0 0 -1
vn 1 0 0
vn 0 1 0
vn 0 -1 0

usemtl Unit_Eye
f 3/3/1 4/4/1 2/2/1 1/1/1
f 4/7/2 6/8/2 5/6/2 2/5/2
f 6/11/3 8/12/3 7/10/3 5/9/3
f 8/7/4 3/8/4 1/6/4 7/5/4
f 8/15/5 6/16/5 4/14/5 3/13/5
f 1/19/6 2/20/6 5/18/6 7/17/6

