# ProBuilder 4.2.3
# https://unity3d.com/unity/features/worldbuilding/probuilder
# 17/01/2021 19:01:48

mtllib ./Canon.mtl
o Canon

g Canon
v -4 -5.00005 0
v -4 4.99995 0
v -3.804226 -5.00005 1.236068
v -3.804226 4.99995 1.236068
v -3.236068 -5.00005 2.351141
v -3.236068 4.99995 2.351141
v -2.351141 -5.00005 3.236068
v -2.351141 4.99995 3.236068
v -1.236068 -5.00005 3.804226
v -1.236068 4.99995 3.804226
v 0 -5.00005 4
v 0 4.99995 4
v 1.236068 -5.00005 3.804226
v 1.236068 4.99995 3.804226
v 2.351141 -5.00005 3.236068
v 2.351141 4.99995 3.236068
v 3.236068 -5.00005 2.351141
v 3.236068 4.99995 2.351141
v 3.804226 -5.00005 1.236068
v 3.804226 4.99995 1.236068
v 4 -5.00005 -3.496911E-07
v 4 4.99995 -3.496911E-07
v 3.804226 -5.00005 -1.236068
v 3.804226 4.99995 -1.236068
v 3.236068 -5.00005 -2.35114
v 3.236068 4.99995 -2.35114
v 2.351142 -5.00005 -3.236067
v 2.351142 4.99995 -3.236067
v 1.236068 -5.00005 -3.804226
v 1.236068 4.99995 -3.804226
v 0 -5.00005 -4
v 0 4.99995 -4
v -1.236068 -5.00005 -3.804226
v -1.236068 4.99995 -3.804226
v -2.35114 -5.00005 -3.236068
v -2.35114 4.99995 -3.236068
v -3.236068 -5.00005 -2.351141
v -3.236068 4.99995 -2.351141
v -3.804226 -5.00005 -1.236068
v -3.804226 4.99995 -1.236068
v 0 -5.00005 0
v -3.301566 -4.49995 0
v 0 -4.49995 0
v -3.139977 -4.49995 1.043493
v -2.671023 -4.49995 1.984841
v -1.940612 -4.49995 2.731899
v -1.02024 -4.49995 3.21154
v 0 -4.49995 3.376813
v 1.02024 -4.49995 3.21154
v 1.940612 -4.49995 2.731899
v 2.671024 -4.49995 1.984841
v 3.139977 -4.49995 1.043493
v 3.301566 -4.49995 -4.768372E-07
v 3.139977 -4.49995 -1.043492
v 2.671024 -4.49995 -1.984841
v 1.940613 -4.49995 -2.731899
v 1.020241 -4.49995 -3.21154
v 0 -4.49995 -3.376813
v -1.020241 -4.49995 -3.21154
v -1.940611 -4.49995 -2.7319
v -2.671023 -4.49995 -1.984841
v -3.139977 -4.49995 -1.043492
v -3.139977 5.00005 -1.043492
v -2.671023 5.00005 -1.984841
v -3.301566 5.00005 0
v -1.940611 5.00005 -2.7319
v -1.020241 5.00005 -3.21154
v 0 5.00005 -3.376813
v 1.020241 5.00005 -3.21154
v 1.940613 5.00005 -2.731899
v 2.671024 5.00005 -1.984841
v 3.139977 5.00005 -1.043492
v 3.301566 5.00005 -4.768372E-07
v 3.139977 5.00005 1.043493
v 2.671024 5.00005 1.984841
v 1.940612 5.00005 2.731899
v 1.02024 5.00005 3.21154
v 0 5.00005 3.376813
v -1.02024 5.00005 3.21154
v -1.940612 5.00005 2.731899
v -2.671023 5.00005 1.984841
v -3.139977 5.00005 1.043493
v -3.139977 -1.49995 -1.043492
v -2.671023 -1.49995 -1.984841
v -3.301566 -1.49995 0
v -1.940611 -1.49995 -2.7319
v -1.020241 -1.49995 -3.21154
v 0 -1.49995 -3.376813
v 1.020241 -1.49995 -3.21154
v 1.940613 -1.49995 -2.731899
v 2.671024 -1.49995 -1.984841
v 3.139977 -1.49995 -1.043492
v 3.301566 -1.49995 -4.768372E-07
v 3.139977 -1.49995 1.043493
v 2.671024 -1.49995 1.984841
v 1.940612 -1.49995 2.731899
v 1.02024 -1.49995 3.21154
v 0 -1.49995 3.376813
v -1.02024 -1.49995 3.21154
v -1.940612 -1.49995 2.731899
v -2.671023 -1.49995 1.984841
v -3.139977 -1.49995 1.043493

vt -0.6257376 -5.00005
vt -0.6257376 4.99995
vt 0.6257381 -5.00005
vt 0.6257381 4.99995
vt -4 0
vt 0 0
vt -3.804226 1.236068
vt 3.301566 0
vt 3.139977 1.043493
vt -3.236068 2.351141
vt 2.671023 1.984841
vt -2.351141 3.236068
vt 1.940612 2.731899
vt -1.236068 3.804226
vt 1.02024 3.21154
vt 0 4
vt 0 3.376813
vt 1.236068 3.804226
vt -1.02024 3.21154
vt 2.351141 3.236068
vt -1.940612 2.731899
vt 3.236068 2.351141
vt -2.671024 1.984841
vt 3.804226 1.236068
vt -3.139977 1.043493
vt 4 -3.496911E-07
vt -3.301566 -4.768372E-07
vt 3.804226 -1.236068
vt -3.139977 -1.043492
vt 3.236068 -2.35114
vt -2.671024 -1.984841
vt 2.351142 -3.236067
vt -1.940613 -2.731899
vt 1.236068 -3.804226
vt -1.020241 -3.21154
vt 0 -4
vt 0 -3.376813
vt -1.236068 -3.804226
vt 1.020241 -3.21154
vt -2.35114 -3.236068
vt 1.940611 -2.7319
vt -3.236068 -2.351141
vt 2.671023 -1.984841
vt -3.804226 -1.236068
vt 3.139977 -1.043492
vt 3.803569 -1.235733
vt 3.235411 -2.350806
vt 3.13932 -1.043158
vt 2.670367 -1.984507
vt 3.999283 0.0001135513
vt 3.300849 0.0001135513
vt 3.23553 -2.350604
vt 2.350603 -3.235531
vt 2.670486 -1.984304
vt 1.940074 -2.731363
vt 2.350783 -3.235367
vt 1.235711 -3.803524
vt 1.019883 -3.210838
vt 1.235942 -3.803427
vt -0.0001265 -3.999201
vt 1.020114 -3.210742
vt -0.0001265025 -3.376015
vt -1.235941 -3.803422
vt -1.020114 -3.210737
vt -1.235705 -3.803513
vt -2.350779 -3.235355
vt -1.019878 -3.210828
vt -1.94025 -2.731186
vt -2.350595 -3.23552
vt -3.235521 -2.350593
vt -2.670477 -1.984293
vt -3.235402 -2.350801
vt -3.80356 -1.235729
vt -2.670358 -1.984501
vt -3.13931 -1.043153
vt -3.999279 0.0001138038
vt -3.300845 0.0001136767
vt -3.803509 1.235955
vt -3.13926 1.043379
vt -3.235411 2.350806
vt -2.670367 1.984506
vt -3.235531 2.350603
vt -2.350603 3.23553
vt -2.670487 1.984303
vt -1.940074 2.731362
vt -2.350783 3.235366
vt -1.23571 3.803524
vt -1.019882 3.210839
vt -1.235941 3.803427
vt 0.0001264999 3.999201
vt -1.020113 3.210742
vt 0.0001265025 3.376015
vt 1.235941 3.803423
vt 1.020113 3.210737
vt 1.235705 3.803514
vt 2.350778 3.235355
vt 1.019877 3.210828
vt 1.940249 2.731187
vt 2.350594 3.235521
vt 3.235521 2.350594
vt 2.670476 1.984294
vt 3.235402 2.350801
vt 3.80356 1.235729
vt 2.670357 1.984502
vt 3.13931 1.043153
vt -0.466117 5.00005
vt 0.5855746 5.00005
vt -0.466117 -1.49995
vt 0.5855746 -1.49995
vt -0.5052409 5.00005
vt 0.5506887 5.00005
vt -0.5052409 -1.49995
vt 0.5506887 -1.49995
vt -0.4480819 5.00005
vt 0.5967141 5.00005
vt -0.4480819 -1.49995
vt 0.5967141 -1.49995
vt -0.4584015 5.00005
vt 0.5794504 5.00005
vt -0.4584015 -1.49995
vt 0.5794504 -1.49995
vt -0.4935555 5.00005
vt 0.5399852 5.00005
vt -0.4935555 -1.49995
vt 0.5399852 -1.49995
vt -0.5399852 5.00005
vt 0.4935555 5.00005
vt -0.5399852 -1.49995
vt 0.4935555 -1.49995
vt -0.5794523 5.00005
vt 0.4584016 5.00005
vt -0.5794523 -1.49995
vt 0.4584016 -1.49995
vt -0.596711 5.00005
vt 0.448084 5.00005
vt -0.596711 -1.49995
vt 0.448084 -1.49995
vt -0.5855756 5.00005
vt 0.466115 5.00005
vt -0.5855756 -1.49995
vt 0.466115 -1.49995
vt -0.5506886 5.00005
vt 0.5052407 5.00005
vt -0.5506886 -1.49995
vt 0.5052407 -1.49995
vt -0.466117 -4.49995
vt 0.5855744 -4.49995
vt -0.5052409 -4.49995
vt 0.5506887 -4.49995
vt -0.448082 -4.49995
vt 0.596714 -4.49995
vt -0.4584016 -4.49995
vt 0.5794503 -4.49995
vt -0.4935555 -4.49995
vt 0.5399852 -4.49995
vt -0.5399852 -4.49995
vt 0.4935555 -4.49995
vt -0.5794523 -4.49995
vt 0.4584016 -4.49995
vt -0.596711 -4.49995
vt 0.448084 -4.49995
vt -0.5855756 -4.49995
vt 0.466115 -4.49995
vt -0.5506885 -4.49995
vt 0.5052406 -4.49995

vn -1 0 -1.508691E-08
vn -0.9510565 0 0.309017
vn -0.809017 0 0.5877852
vn -0.5877852 0 0.809017
vn -0.3090169 0 0.9510565
vn 0 0 1
vn 0.309017 0 0.9510565
vn 0.5877852 0 0.809017
vn 0.809017 0 0.5877852
vn 0.9510565 0 0.3090169
vn 1 0 -6.034762E-08
vn 0.9510565 0 -0.309017
vn 0.8090171 0 -0.5877851
vn 0.5877854 0 -0.8090169
vn 0.3090171 0 -0.9510565
vn 2.263036E-08 0 -1
vn -0.309017 0 -0.9510565
vn -0.5877852 0 -0.8090171
vn -0.8090169 0 -0.5877854
vn -0.9510565 0 -0.309017
vn 0 -1 0
vn 0 1 0
vn 0.895081 0 0.4459037
vn 0.9882215 0 0.1530307
vn 0.7150285 0 0.6990953
vn 0.4621469 0 0.8868034
vn 0.1599097 0 0.9871317
vn -0.1599097 0 0.9871317
vn -0.4621474 0 0.8868032
vn -0.7150282 0 0.6990955
vn -0.8950812 0 0.4459032
vn -0.9882215 0 0.1530308
vn -0.9882215 0 -0.1530305
vn -0.8950811 0 -0.4459033
vn -0.7150282 0 -0.6990957
vn -0.462147 0 -0.8868033
vn -0.1599096 0 -0.9871317
vn 0.1599096 0 -0.9871317
vn 0.462147 0 -0.8868033
vn 0.7150285 0 -0.6990953
vn 0.8950808 0 -0.445904
vn 0.9882215 0 -0.1530306

usemtl Canon
f 1/5/21 41/6/21 3/7/21
f 3/7/21 41/6/21 5/10/21
f 5/10/21 41/6/21 7/12/21
f 7/12/21 41/6/21 9/14/21
f 9/14/21 41/6/21 11/16/21
f 11/16/21 41/6/21 13/18/21
f 13/18/21 41/6/21 15/20/21
f 15/20/21 41/6/21 17/22/21
f 17/22/21 41/6/21 19/24/21
f 19/24/21 41/6/21 21/26/21
f 21/26/21 41/6/21 23/28/21
f 23/28/21 41/6/21 25/30/21
f 25/30/21 41/6/21 27/32/21
f 27/32/21 41/6/21 29/34/21
f 29/34/21 41/6/21 31/36/21
f 31/36/21 41/6/21 33/38/21
f 33/38/21 41/6/21 35/40/21
f 35/40/21 41/6/21 37/42/21
f 37/42/21 41/6/21 39/44/21
f 39/44/21 41/6/21 1/5/21
f 44/9/22 43/6/22 42/8/22
f 45/11/22 43/6/22 44/9/22
f 46/13/22 43/6/22 45/11/22
f 47/15/22 43/6/22 46/13/22
f 48/17/22 43/6/22 47/15/22
f 49/19/22 43/6/22 48/17/22
f 50/21/22 43/6/22 49/19/22
f 51/23/22 43/6/22 50/21/22
f 52/25/22 43/6/22 51/23/22
f 53/27/22 43/6/22 52/25/22
f 54/29/22 43/6/22 53/27/22
f 55/31/22 43/6/22 54/29/22
f 56/33/22 43/6/22 55/31/22
f 57/35/22 43/6/22 56/33/22
f 58/37/22 43/6/22 57/35/22
f 59/39/22 43/6/22 58/37/22
f 60/41/22 43/6/22 59/39/22
f 61/43/22 43/6/22 60/41/22
f 62/45/22 43/6/22 61/43/22
f 42/8/22 43/6/22 62/45/22
f 4/4/2 2/2/1 1/1/1
f 1/1/1 3/3/2 4/4/2
f 6/4/3 4/2/2 3/1/2
f 3/1/2 5/3/3 6/4/3
f 8/4/4 6/2/3 5/1/3
f 5/1/3 7/3/4 8/4/4
f 10/4/5 8/2/4 7/1/4
f 7/1/4 9/3/5 10/4/5
f 12/4/6 10/2/5 9/1/5
f 9/1/5 11/3/6 12/4/6
f 14/4/7 12/2/6 11/1/6
f 11/1/6 13/3/7 14/4/7
f 16/4/8 14/2/7 13/1/7
f 13/1/7 15/3/8 16/4/8
f 18/4/9 16/2/8 15/1/8
f 15/1/8 17/3/9 18/4/9
f 20/4/10 18/2/9 17/1/9
f 17/1/9 19/3/10 20/4/10
f 22/4/11 20/2/10 19/1/10
f 19/1/10 21/3/11 22/4/11
f 24/4/12 22/2/11 21/1/11
f 21/1/11 23/3/12 24/4/12
f 26/4/13 24/2/12 23/1/12
f 23/1/12 25/3/13 26/4/13
f 28/4/14 26/2/13 25/1/13
f 25/1/13 27/3/14 28/4/14
f 30/4/15 28/2/14 27/1/14
f 27/1/14 29/3/15 30/4/15
f 32/4/16 30/2/15 29/1/15
f 29/1/15 31/3/16 32/4/16
f 34/4/17 32/2/16 31/1/16
f 31/1/16 33/3/17 34/4/17
f 36/4/18 34/2/17 33/1/17
f 33/1/17 35/3/18 36/4/18
f 38/4/19 36/2/18 35/1/18
f 35/1/18 37/3/19 38/4/19
f 40/4/20 38/2/19 37/1/19
f 37/1/19 39/3/20 40/4/20
f 2/4/1 40/2/20 39/1/20
f 39/1/20 1/3/1 2/4/1
f 64/49/22 38/47/22 40/46/22
f 40/46/22 63/48/22 64/49/22
f 63/48/22 40/46/22 2/50/22
f 2/50/22 65/51/22 63/48/22
f 66/55/22 36/53/22 38/52/22
f 38/52/22 64/54/22 66/55/22
f 67/58/22 34/57/22 36/56/22
f 36/56/22 66/55/22 67/58/22
f 68/62/22 32/60/22 34/59/22
f 34/59/22 67/61/22 68/62/22
f 69/64/22 30/63/22 32/60/22
f 32/60/22 68/62/22 69/64/22
f 70/68/22 28/66/22 30/65/22
f 30/65/22 69/67/22 70/68/22
f 71/71/22 26/70/22 28/69/22
f 28/69/22 70/68/22 71/71/22
f 72/75/22 24/73/22 26/72/22
f 26/72/22 71/74/22 72/75/22
f 73/77/22 22/76/22 24/73/22
f 24/73/22 72/75/22 73/77/22
f 74/79/22 20/78/22 22/76/22
f 22/76/22 73/77/22 74/79/22
f 75/81/22 18/80/22 20/78/22
f 20/78/22 74/79/22 75/81/22
f 76/85/22 16/83/22 18/82/22
f 18/82/22 75/84/22 76/85/22
f 77/88/22 14/87/22 16/86/22
f 16/86/22 76/85/22 77/88/22
f 78/92/22 12/90/22 14/89/22
f 14/89/22 77/91/22 78/92/22
f 79/94/22 10/93/22 12/90/22
f 12/90/22 78/92/22 79/94/22
f 80/98/22 8/96/22 10/95/22
f 10/95/22 79/97/22 80/98/22
f 81/101/22 6/100/22 8/99/22
f 8/99/22 80/98/22 81/101/22
f 82/105/22 4/103/22 6/102/22
f 6/102/22 81/104/22 82/105/22
f 65/51/22 2/50/22 4/103/22
f 4/103/22 82/105/22 65/51/22
f 84/109/23 64/107/23 63/106/23
f 63/106/23 83/108/23 84/109/23
f 83/113/24 63/111/24 65/110/24
f 65/110/24 85/112/24 83/113/24
f 86/117/25 66/115/25 64/114/25
f 64/114/25 84/116/25 86/117/25
f 87/121/26 67/119/26 66/118/26
f 66/118/26 86/120/26 87/121/26
f 88/125/27 68/123/27 67/122/27
f 67/122/27 87/124/27 88/125/27
f 89/129/28 69/127/28 68/126/28
f 68/126/28 88/128/28 89/129/28
f 90/133/29 70/131/29 69/130/29
f 69/130/29 89/132/29 90/133/29
f 91/137/30 71/135/30 70/134/30
f 70/134/30 90/136/30 91/137/30
f 92/141/31 72/139/31 71/138/31
f 71/138/31 91/140/31 92/141/31
f 93/145/32 73/143/32 72/142/32
f 72/142/32 92/144/32 93/145/32
f 94/113/33 74/111/33 73/110/33
f 73/110/33 93/112/33 94/113/33
f 95/109/34 75/107/34 74/106/34
f 74/106/34 94/108/34 95/109/34
f 96/117/35 76/115/35 75/114/35
f 75/114/35 95/116/35 96/117/35
f 97/121/36 77/119/36 76/118/36
f 76/118/36 96/120/36 97/121/36
f 98/125/37 78/123/37 77/122/37
f 77/122/37 97/124/37 98/125/37
f 99/129/38 79/127/38 78/126/38
f 78/126/38 98/128/38 99/129/38
f 100/133/39 80/131/39 79/130/39
f 79/130/39 99/132/39 100/133/39
f 101/137/40 81/135/40 80/134/40
f 80/134/40 100/136/40 101/137/40
f 102/141/41 82/139/41 81/138/41
f 81/138/41 101/140/41 102/141/41
f 85/145/42 65/143/42 82/142/42
f 82/142/42 102/144/42 85/145/42
f 61/147/23 84/109/23 83/108/23
f 83/108/23 62/146/23 61/147/23
f 62/149/24 83/113/24 85/112/24
f 85/112/24 42/148/24 62/149/24
f 60/151/25 86/117/25 84/116/25
f 84/116/25 61/150/25 60/151/25
f 59/153/26 87/121/26 86/120/26
f 86/120/26 60/152/26 59/153/26
f 58/155/27 88/125/27 87/124/27
f 87/124/27 59/154/27 58/155/27
f 57/157/28 89/129/28 88/128/28
f 88/128/28 58/156/28 57/157/28
f 56/159/29 90/133/29 89/132/29
f 89/132/29 57/158/29 56/159/29
f 55/161/30 91/137/30 90/136/30
f 90/136/30 56/160/30 55/161/30
f 54/163/31 92/141/31 91/140/31
f 91/140/31 55/162/31 54/163/31
f 53/165/32 93/145/32 92/144/32
f 92/144/32 54/164/32 53/165/32
f 52/149/33 94/113/33 93/112/33
f 93/112/33 53/148/33 52/149/33
f 51/147/34 95/109/34 94/108/34
f 94/108/34 52/146/34 51/147/34
f 50/151/35 96/117/35 95/116/35
f 95/116/35 51/150/35 50/151/35
f 49/153/36 97/121/36 96/120/36
f 96/120/36 50/152/36 49/153/36
f 48/155/37 98/125/37 97/124/37
f 97/124/37 49/154/37 48/155/37
f 47/157/38 99/129/38 98/128/38
f 98/128/38 48/156/38 47/157/38
f 46/159/39 100/133/39 99/132/39
f 99/132/39 47/158/39 46/159/39
f 45/161/40 101/137/40 100/136/40
f 100/136/40 46/160/40 45/161/40
f 44/163/41 102/141/41 101/140/41
f 101/140/41 45/162/41 44/163/41
f 42/165/42 85/145/42 102/144/42
f 102/144/42 44/164/42 42/165/42

